<svg xmlns="http://www.w3.org/2000/svg" viewBox="0 0 375 667"><defs><style>.cls-1{fill:#fff;}.cls-2,.cls-3,.cls-4{fill:#757575;}.cls-3{font-size:11px;}.cls-3,.cls-4{font-family:OpenSans, Open Sans;}.cls-4{font-size:10px;}.cls-10,.cls-11,.cls-5,.cls-6{fill:none;stroke-miterlimit:10;}.cls-5{stroke:#4f4f4f;stroke-width:0.25px;}.cls-6{stroke:#f47634;}.cls-7{font-size:16px;}.cls-12,.cls-7,.cls-8{fill:#333;}.cls-12,.cls-13,.cls-16,.cls-7{font-family:Comfortaa-Bold, Comfortaa;font-weight:700;}.cls-9{fill:#4f4f4f;}.cls-10{stroke:#f37321;}.cls-10,.cls-11{stroke-linecap:round;stroke-width:12px;}.cls-11{stroke:#f99b1c;}.cls-12,.cls-13{font-size:14px;}.cls-13,.cls-16{fill:#231f20;}.cls-14{fill:#f37321;}.cls-15{fill:#f99b1c;}.cls-16{font-size:12px;}</style></defs><title>dashboard</title><g id="Layer_11" data-name="Layer 11"><rect class="cls-1" width="375" height="667"/><path class="cls-2" d="M106.42,20.18l1.71,2.15,1.71-2.15a3.29,3.29,0,0,0-3.42,0Z"/><path class="cls-2" d="M104.07,17.23l1.82,2.27a4.2,4.2,0,0,1,2.24-.67,4.26,4.26,0,0,1,2.25.67l1.81-2.27a7.08,7.08,0,0,0-8.12,0Z"/><path class="cls-2" d="M108.13,8.44a14.36,14.36,0,0,0-8.73,2.92l1.8,2.26a11.63,11.63,0,0,1,13.86,0l1.8-2.26A14.36,14.36,0,0,0,108.13,8.44Z"/><path class="cls-2" d="M101.74,14.3l1.79,2.25a7.93,7.93,0,0,1,9.2,0l1.79-2.25a10.77,10.77,0,0,0-12.78,0Z"/><polygon class="cls-2" points="99.93 22.33 103.54 22.33 101.74 19.2 99.93 22.33"/><polygon class="cls-2" points="19.78 12.89 17.51 15.15 17.51 22.33 19.78 22.33 19.78 12.89"/><polygon class="cls-2" points="14.19 22.33 16.45 22.33 16.45 16.21 14.19 18.48 14.19 22.33"/><polygon class="cls-2" points="10.87 22.33 13.13 22.33 13.13 19.53 10.87 21.8 10.87 22.33"/><polygon class="cls-2" points="20.84 11.83 20.84 22.33 23.63 22.33 23.63 9.04 20.84 11.83"/><path class="cls-2" d="M361.38,23.42a.63.63,0,0,0,.63-.63v-2h1.49a.64.64,0,0,0,.63-.64v-4a.63.63,0,0,0-.63-.63H362v-2a.63.63,0,0,0-.63-.63h-2.53V23.42Z"/><path class="cls-2" d="M342.2,13.52v9.27a.63.63,0,0,0,.64.63h16V12.89h-16A.63.63,0,0,0,342.2,13.52Z"/><text class="cls-3" transform="translate(184.52 23.67) scale(0.97 1)">10:40</text><text class="cls-4" transform="translate(29.77 20.93) scale(0.97 1)">Vodafone IN </text><rect class="cls-5" x="29.77" y="295.59" width="320.75" height="49.43" rx="2.96"/><rect class="cls-5" x="29.77" y="357.26" width="320.75" height="49.43" rx="2.96"/><rect class="cls-6" x="29.77" y="418.94" width="320.75" height="49.43" rx="2.96"/><rect class="cls-5" x="29.77" y="480.62" width="320.75" height="49.43" rx="2.96"/><rect class="cls-5" x="29.77" y="542.3" width="320.75" height="49.43" rx="2.96"/><text class="cls-7" transform="translate(50.88 68.85)">Dashboard</text><path class="cls-8" d="M27.63,63.4l-.13,0v.06h.14l3.95,1.63a.76.76,0,0,1,.45.66l0,.61a.68.68,0,0,1-.95.74L26.2,64.71a.78.78,0,0,1-.41-.64l-.07-1a.75.75,0,0,1,.31-.69l4.51-3.16a.69.69,0,0,1,1.05.59l0,.61a.77.77,0,0,1-.34.71Z"/><path class="cls-9" d="M334.87,320.58l.14,0v-.06l-.14,0-3.72-2.08a.76.76,0,0,1-.37-.71l0-.61a.69.69,0,0,1,1-.62l4.6,3a.77.77,0,0,1,.34.68l0,1a.76.76,0,0,1-.39.65l-4.85,2.6a.68.68,0,0,1-1-.71l0-.61a.79.79,0,0,1,.43-.67Z"/><path class="cls-9" d="M334.87,382.18l.14,0v0l-.14,0L331.15,380a.76.76,0,0,1-.37-.71l0-.61a.69.69,0,0,1,1-.62l4.6,3a.77.77,0,0,1,.34.68l0,1a.76.76,0,0,1-.39.65l-4.85,2.6a.68.68,0,0,1-1-.71l0-.61A.79.79,0,0,1,331,384Z"/><path class="cls-9" d="M334.87,443.78l.14,0v-.06l-.14,0-3.72-2.08a.75.75,0,0,1-.37-.71l0-.61a.69.69,0,0,1,1-.62l4.6,3a.77.77,0,0,1,.34.68l0,1a.76.76,0,0,1-.39.65l-4.85,2.6a.68.68,0,0,1-1-.71l0-.61a.77.77,0,0,1,.43-.66Z"/><path class="cls-9" d="M334.87,505.38l.14,0v-.06l-.14,0-3.72-2.08a.74.74,0,0,1-.37-.7l0-.62a.69.69,0,0,1,1-.62l4.6,3a.78.78,0,0,1,.34.68l0,1a.76.76,0,0,1-.39.65l-4.85,2.6a.68.68,0,0,1-1-.71l0-.6a.77.77,0,0,1,.43-.67Z"/><path class="cls-9" d="M334.87,567l.14,0v-.06l-.14,0-3.72-2.09a.74.74,0,0,1-.37-.7l0-.62a.69.69,0,0,1,1-.62l4.6,3a.8.8,0,0,1,.34.69l0,1a.78.78,0,0,1-.39.65l-4.85,2.59a.68.68,0,0,1-1-.71l0-.6a.77.77,0,0,1,.43-.67Z"/><path class="cls-10" d="M170.7,164.21a66.63,66.63,0,1,1-66.63-66.62"/><path class="cls-11" d="M141.11,137.13a45.88,45.88,0,1,1-37-18.79"/><text class="cls-12" transform="translate(31.98 274.74)">Associated Goals</text><text class="cls-13" transform="translate(55.03 325.07)">Retirement Funds</text><text class="cls-13" transform="translate(55.03 386.84)">Wedding</text><text class="cls-13" transform="translate(54.13 450.81)">Car</text><text class="cls-13" transform="translate(55.03 512.52)">Home Downpayment</text><text class="cls-13" transform="translate(55.03 574.17)">Kids</text><circle class="cls-14" cx="216.83" cy="121.48" r="6"/><circle class="cls-15" cx="216.83" cy="184.73" r="6"/><text class="cls-16" transform="translate(241.29 124.85)">Months left<tspan x="0" y="19">26 / 36 months</tspan></text><text class="cls-16" transform="translate(241.29 188.41)">Money Saved<tspan x="0" y="19">90% 0f 100%</tspan></text></g></svg>